<svg xmlns="http://www.w3.org/2000/svg" width="20" height="20" fill="none" viewBox="0 0 20 20">
  <path fill="#83899B" d="M16.876 17.5a.621.621 0 0 1-.442-.183L2.684 3.567a.625.625 0 0 1 .884-.884l13.75 13.75a.626.626 0 0 1-.442 1.067ZM9.987 15c-1.62 0-3.183-.48-4.645-1.426-1.33-.86-2.529-2.09-3.465-3.555v-.003c.78-1.116 1.632-2.06 2.549-2.82a.078.078 0 0 0 .005-.115l-.778-.777a.078.078 0 0 0-.106-.005C2.574 7.12 1.67 8.126.85 9.304a1.247 1.247 0 0 0-.025 1.388c1.031 1.615 2.36 2.974 3.839 3.932 1.666 1.079 3.459 1.626 5.325 1.626a9.34 9.34 0 0 0 2.96-.492.079.079 0 0 0 .05-.095.078.078 0 0 0-.02-.034l-.842-.843a.157.157 0 0 0-.15-.039A8 8 0 0 1 9.988 15Zm9.187-5.68c-1.033-1.598-2.374-2.956-3.877-3.927-1.663-1.075-3.5-1.643-5.31-1.643a8.88 8.88 0 0 0-2.925.501.078.078 0 0 0-.03.13l.843.841a.156.156 0 0 0 .151.04A7.532 7.532 0 0 1 9.988 5c1.589 0 3.147.485 4.63 1.445 1.356.875 2.568 2.105 3.507 3.555a.005.005 0 0 1 0 .006 12.139 12.139 0 0 1-2.505 2.841.078.078 0 0 0-.006.115l.777.777a.078.078 0 0 0 .106.005 13.414 13.414 0 0 0 2.681-3.065 1.257 1.257 0 0 0-.004-1.359Z"/>
  <path fill="#83899B" d="M10 6.25c-.28 0-.56.031-.834.094a.078.078 0 0 0-.039.132l4.398 4.397a.078.078 0 0 0 .132-.04 3.75 3.75 0 0 0-3.656-4.583ZM6.478 9.127a.078.078 0 0 0-.132.04 3.75 3.75 0 0 0 4.492 4.492.078.078 0 0 0 .039-.132l-4.4-4.4Z"/>
</svg>
