<svg xmlns="http://www.w3.org/2000/svg" width="154" height="75" fill="none" viewBox="0 0 154 75">
  <g clip-path="url(#a)">
    <path fill="#005DAC" d="M55.508 14.982c0-.523-.061-3.36-.102-3.662-.06-.483-.325-.564-.67-.564h-1.005c-.101 0-.162-.02-.162-.14v-.584c0-.08.061-.1.142-.1.264 0 1.147.06 3.167.06.528 0 2.547-.06 3.004-.06 2.852 0 4.984.301 6.851 1.82 1.33 1.097 2.263 2.767 2.263 5.082 0 2.314-.67 3.823-1.999 5.262-1.939 2.123-5.308 2.123-6.689 2.123-.324 0-2.71-.06-3.816-.06-1.756 0-2.568.06-2.852.06-.101 0-.142-.04-.142-.181v-.523c0-.081.06-.121.162-.121h1.046c.386 0 .609-.161.65-.443.06-.322.142-2.998.142-4.89v-.553h-1.675c-.061 0-.081-.02-.081-.161v-.644c0-.1.04-.121.121-.121h1.635v-1.62l.01.02Zm3.024 1.63h2.944c.08 0 .121.02.121.141v.684c0 .08-.06.1-.162.1h-2.903v.444c0 .321.02 2.626.04 3.863 0 .403.082.725.326 1.117.263.362 1.045.463 1.634.463 1.37 0 2.69-.624 3.775-1.962.822-1.037 1.431-2.707 1.431-4.568 0-1.64-.69-3.32-1.634-4.367-1.065-1.167-2.649-1.821-4.019-1.821-.568 0-.863.02-1.127.14-.304.142-.385.383-.405.876-.02.835-.02 3.461-.02 3.783v1.107Zm14.829 2.083c-.162.422-1.147 3.159-1.147 3.803 0 .443.183.915.792.915h.71c.204 0 .224.081.224.162v.442c0 .161-.02.222-.183.222-.264 0-1.086-.06-2.75-.06-1.472 0-1.919.06-2.203.06-.122 0-.142-.121-.142-.262v-.382c0-.121.02-.181.142-.181h.528c.487 0 .964-.282 1.37-.876.284-.422 1.716-3.904 2.385-5.665a374.59 374.59 0 0 0 1.98-5.242c.06-.201.162-.463.02-.684-.061-.08-.142-.181-.142-.261 0-.06.04-.141.203-.182.65-.14 1.959-.664 2.263-.996.102-.1.162-.18.264-.18.122 0 .162.12.223.341.386 1.268 1.96 5.745 2.345 7.023.467 1.56 1.776 5.283 2.06 5.826.345.664.863.906 1.167.906h.69c.122 0 .143.08.143.18v.383c0 .12-.02.262-.183.262-.386 0-.812-.06-3.39-.06-1.675 0-2.385.06-2.791.06-.203 0-.223-.121-.223-.262v-.382c0-.1.02-.181.121-.181h.569c.548 0 .73-.202.609-.725-.183-.724-.965-3.28-1.208-4.004h-4.445Zm4.243-.805-1.512-5.303c-.082-.302-.122-.443-.224-.443-.121 0-.182.08-.243.262-.102.262-1.837 4.98-2 5.484h3.979Zm9.145-2.103c0-.483-.061-4.085-.081-4.347-.041-.483-.244-.684-.67-.684h-.965c-.101 0-.162-.04-.162-.12v-.584c0-.08.061-.12.142-.12.244 0 1.269.06 3.248.06 1.98 0 2.71-.06 2.984-.06.102 0 .142.06.142.18v.503c0 .101-.06.141-.162.141h-.589c-.507 0-.802.161-.802.523 0 .202-.06 4.629-.06 4.87v1.54c0 .201.06 4.83.06 5 0 .624.305.725.69.725h.823c.101 0 .162.04.162.14v.564c0 .08-.061.12-.183.12-.243 0-1.045-.06-2.963-.06-2.122 0-2.984.06-3.208.06-.101 0-.162-.04-.162-.16v-.543c0-.08.06-.121.162-.121h.589c.406 0 .822-.06.903-.544.04-.301.102-4.628.102-5.684v-1.399Zm12.139.503c0-1.247-.04-3.944-.04-4.226 0-1.026-.142-1.308-.69-1.308h-.823c-.223 0-.243-.08-.243-.201v-.382c0-.121.02-.242.223-.242.345 0 .985.06 3.004.06 2.02 0 2.71-.06 3.045-.06.224 0 .244.06.244.222v.422c0 .12-.02.181-.244.181h-.487c-.731 0-.822.342-.883 1.097-.02.282-.122 2.918-.122 4.045v.302c0 .1.061.16.325.16h6.039c.305 0 .406-.04.406-.261v-.201c0-1.147-.142-3.924-.142-4.126-.02-.643-.102-1.016-.467-1.016h-.822c-.183 0-.203-.06-.203-.201v-.443c0-.12.02-.18.183-.18.365 0 1.228.06 2.943.06s2.527-.06 2.791-.06c.244 0 .264.06.264.22v.383c0 .14-.02.221-.264.221h-.609c-.588 0-.649.342-.649 1.016 0 .282-.041 3.663-.041 4.408v.684c0 .644.041 4.447.061 5.544 0 .724.203 1.006.802 1.006h.69c.162 0 .183.06.183.181v.443c0 .1-.021.2-.224.2-.324 0-1.004-.06-2.831-.06-2.061 0-2.71.06-3.167.06-.223 0-.264-.1-.264-.2v-.443c0-.12.02-.181.223-.181h.883c.488 0 .548-.383.569-.886.04-.935.081-4.165.081-4.81v-.24c0-.222-.203-.242-.447-.242h-6.039c-.223 0-.284.06-.284.241v.302c0 .503.081 3.582.142 4.94.021.483.223.685.67.685h.568c.163 0 .183.04.183.16v.484c0 .12-.02.18-.183.18-.365 0-1.065-.06-2.77-.06-2.142 0-2.75.06-3.147.06-.183 0-.203-.06-.203-.22v-.423c0-.141.02-.181.203-.181h.924c.507 0 .568-.483.568-.916.02-.946.061-4.83.061-5.343v-.855h.01Zm19.142 6.882c-1.431-.855-2.964-3.018-2.964-5.946 0-1.228.325-3.12 1.878-4.98 1.776-2.144 4.06-2.546 5.877-2.546 1.674 0 3.227.261 4.922 1.58 1.533 1.207 2.771 3.22 2.771 5.986 0 1.46-.467 2.978-1.512 4.387-1.309 1.62-3.025 2.827-6.222 2.827-1.39 0-3.146-.322-4.75-1.308Zm9.307-5.745c0-4.387-2.903-6.792-4.608-6.792-.406 0-1.41-.1-2.649 1.077-1.187 1.117-1.796 3.22-1.796 4.87 0 5.121 2.964 6.953 4.648 6.953 3.735 0 4.405-4.468 4.405-6.108Zm7.633 5.212c-1.492-1.318-2.202-3.622-2.202-5.343 0-2.063.669-3.924 2.08-5.423 1.147-1.228 2.832-2.164 5.329-2.164 1.837 0 3.349.463 4.06.836.284.14.385.12.426-.02l.162-.504c.041-.12.082-.12.386-.12s.345.04.345.322c0 .382.365 3.783.467 4.386.02.141 0 .242-.102.262l-.446.12c-.102.041-.183-.04-.244-.22-.223-.795-.771-1.822-1.613-2.687-.863-.835-1.939-1.5-3.472-1.5-2.943 0-4.202 2.667-4.181 5.625 0 1.268.365 3.723 1.796 5.222 1.309 1.339 2.467 1.5 3.147 1.5 2.304 0 4.019-1.037 4.77-2.144.101-.16.203-.241.304-.16l.345.301c.061.04.082.121 0 .242-1.167 1.68-3.126 3.3-5.978 3.3-2.679 0-4.09-.714-5.369-1.841l-.01.01Z"/>
    <path fill="#005DAC" fill-rule="evenodd" d="M45.46 37.35 35.2 10.352a.707.707 0 0 0-1.32 0l-2.8 7.345 1.958 5.223 1.512-4.015 6.85 19.39c.843 2.435-.923 4.98-3.46 4.98h-.102a.802.802 0 0 1-.71-1.167 6.38 6.38 0 0 0 .314-5.292L23.588.453a.707.707 0 0 0-1.32 0L8.414 36.826a6.382 6.382 0 0 0 .315 5.292.797.797 0 0 1-.71 1.167h-.102c-2.538 0-4.314-2.555-3.461-4.98l6.86-19.399 1.513 4.015 1.959-5.223-2.801-7.345a.707.707 0 0 0-1.32 0L.406 37.35c-1.512 3.934 1.37 8.13 5.511 8.13h9.084c.741 0 1.086-.946.508-1.419-1.746-1.449-3.654-4.035-2.315-7.999l9.064-24.5c.223-.614 1.096-.614 1.33 0l9.063 24.5c1.34 3.965-.558 6.56-2.314 8-.578.472-.233 1.418.508 1.418h9.084c4.15 0 7.023-4.196 5.51-8.13h.021Zm-15.407-6.601-2.03-5.102-5.095 12.235-5.095-12.235-2.03 5.102s3.644 8.784 5.724 13.784c.518 1.248 2.294 1.248 2.802 0l5.724-13.784Z" clip-rule="evenodd"/>
    <path fill="#005DAC" d="M55.304 37.51c0-1.248-.04-3.944-.04-4.226 0-1.016-.142-1.298-.69-1.298h-.823c-.223 0-.243-.08-.243-.201v-.382c0-.121.02-.242.223-.242.345 0 .985.06 3.004.06 2.02 0 2.71-.06 3.045-.06.224 0 .244.06.244.221v.423c0 .12-.02.181-.244.181h-.487c-.73 0-.822.342-.883 1.097-.02.282-.122 2.918-.122 4.045v.302c0 .1.061.16.325.16h6.04c.304 0 .405-.04.405-.261v-.201c0-1.147-.142-3.924-.142-4.126-.02-.644-.102-1.016-.467-1.016h-.822c-.183 0-.203-.06-.203-.201v-.443c0-.12.02-.18.183-.18.365 0 1.228.06 2.943.06s2.527-.06 2.791-.06c.244 0 .264.06.264.22v.383c0 .14-.02.221-.264.221h-.609c-.588 0-.65.342-.65 1.016 0 .282-.04 3.663-.04 4.407v.685c0 .644.04 4.447.06 5.544 0 .724.204.996.803.996h.69c.162 0 .183.06.183.18v.444c0 .1-.02.2-.224.2-.324 0-1.005-.06-2.831-.06-2.06 0-2.71.06-3.167.06-.223 0-.264-.1-.264-.2v-.443c0-.12.02-.181.223-.181h.883c.487 0 .548-.383.569-.886.04-.935.08-4.165.08-4.81v-.24c0-.222-.202-.242-.446-.242h-6.039c-.223 0-.284.06-.284.241V39c0 .503.081 3.582.142 4.94.02.483.224.685.67.685h.568c.163 0 .183.04.183.16v.484c0 .12-.02.18-.183.18-.365 0-1.065-.06-2.77-.06-2.142 0-2.75.06-3.147.06-.182 0-.203-.06-.203-.22v-.423c0-.141.02-.181.203-.181h.924c.507 0 .568-.483.568-.916.02-.946.061-4.83.061-5.343v-.855h.01Zm19.144 6.892c-1.431-.855-2.964-3.018-2.964-5.946 0-1.228.325-3.12 1.878-4.98 1.776-2.144 4.06-2.546 5.877-2.546 1.674 0 3.227.261 4.932 1.58 1.533 1.207 2.771 3.22 2.771 5.986 0 1.459-.467 2.978-1.512 4.387-1.31 1.62-3.025 2.827-6.222 2.827-1.39 0-3.156-.322-4.75-1.308h-.01Zm9.307-5.755c0-4.387-2.913-6.792-4.608-6.792-.406 0-1.41-.1-2.649 1.077-1.187 1.117-1.796 3.22-1.796 4.87 0 5.121 2.963 6.953 4.648 6.953 3.735 0 4.405-4.468 4.405-6.108Zm7.531 1.268c-.163.422-1.147 3.17-1.147 3.803 0 .443.182.916.781.916h.71c.204 0 .224.08.224.16v.444c0 .16-.02.22-.183.22-.264 0-1.086-.06-2.75-.06-1.472 0-1.919.06-2.203.06-.121 0-.142-.12-.142-.26v-.383c0-.12.02-.181.142-.181h.528c.487 0 .964-.282 1.37-.876.284-.422 1.716-3.904 2.385-5.664a389.37 389.37 0 0 0 1.98-5.242c.06-.202.162-.463.02-.685-.061-.08-.142-.18-.142-.261 0-.06.04-.141.203-.181.65-.141 1.959-.665 2.263-.997.102-.1.162-.18.264-.18.122 0 .162.12.223.342.386 1.267 1.96 5.745 2.345 7.023.467 1.56 1.776 5.282 2.06 5.825.345.664.863.906 1.167.906h.691c.121 0 .142.08.142.18v.383c0 .121-.021.262-.183.262-.386 0-.802-.06-3.39-.06-1.675 0-2.385.06-2.791.06-.203 0-.223-.12-.223-.262v-.382c0-.1.02-.181.121-.181h.569c.548 0 .73-.201.609-.725-.183-.724-.964-3.28-1.208-4.004h-4.435Zm4.242-.805-1.512-5.303c-.081-.302-.122-.442-.224-.442-.121 0-.182.08-.243.261-.102.262-1.837 4.98-2 5.484h3.98Zm12.626 1.861c.081 0 .142.02.142.161.04.624.324 1.48.801 2.264.589.916 1.574 1.358 2.548 1.358s2.527-.643 2.527-2.223c0-1.66-.325-2.143-2.943-3.12-.609-.22-1.898-.855-2.923-1.74-.711-.624-1.005-1.68-1.005-2.837 0-1.228.304-2.043 1.512-2.939.904-.684 1.675-.965 2.913-.965 1.472 0 2.264.241 2.69.402.203.08.345.04.467-.1l.264-.262a.413.413 0 0 1 .304-.12c.142 0 .183.22.203.341l.325 3.421c0 .08-.041.1-.102.12l-.446.142c-.102.04-.203 0-.264-.141-.223-.584-.568-1.358-1.248-2.083-.508-.563-1.107-.835-2.02-.835-1.513 0-2.142 1.308-2.142 1.821 0 .745.02 1.338.528 1.841.528.544 1.675 1.017 2.669 1.309.965.281 1.756.784 2.588 1.519.782.704 1.107 1.58 1.107 2.978 0 2.445-1.756 4.427-4.425 4.427-1.817 0-2.771-.302-3.614-.855-.243-.161-.365-.221-.467-.221-.121 0-.203.14-.324.342-.122.221-.224.241-.366.241-.223 0-.304-.1-.284-.322l.325-3.803c.02-.14.081-.14.162-.14l.518.04-.02-.02Zm15.001-3.24c.924 0 1.817-.06 2.061-.12.345-.081.629-.262.923-.624.224-.302.467-.856.467-1.248 0-.14.061-.181.163-.181l.548.06c.101.02.182.04.162.161-.061.342-.061 1.379-.061 2.083 0 .895.082 1.861.122 2.284.02.12-.061.14-.162.161l-.487.1c-.082.02-.122-.02-.163-.16-.081-.322-.284-.775-.406-1.017-.223-.382-.71-.643-1.106-.704-.548-.08-1.167-.12-2.061-.12v1.207c0 1.076.102 3.018.102 3.38 0 1.037.223 1.4.487 1.52.305.12.69.18 1.695.18.345 0 1.188-.02 1.614-.06.406-.04 1.005-.24 1.533-.664.527-.422 1.654-1.66 2.06-2.143.081-.08.142-.1.203-.06l.345.201c.081.04.101.1.081.161l-.903 3.019c-.061.18-.203.302-.447.302-.101 0-.548-.02-1.837-.04-1.309 0-3.451-.02-6.952-.02-.751 0-1.31.02-1.716.02-.426.02-.69.04-.862.04-.142 0-.183-.06-.183-.222v-.422c0-.121.061-.181.203-.181h.609c.924 0 1.005-.141 1.005-.836v-6.7c0-1.66-.041-4.126-.061-4.327-.081-.644-.284-.785-.822-.785h-.782c-.081 0-.101-.06-.101-.201v-.483c0-.06.02-.141.142-.141.446 0 1.147.06 2.984.06l7.084-.02c.325 0 .711-.04.802-.04.091 0 .142.04.162.1.082.282.741 3.019.823 3.23.04.1.04.141-.061.201l-.325.161c-.081.04-.183.02-.244-.08-.101-.161-1.918-1.962-2.385-2.244-.426-.261-.984-.523-1.532-.543l-2.67-.08-.061 5.825.01.01Zm21.488 1.841c0-1.78-.021-2.766-.061-3.763-.021-.784-.122-2.746-.183-3.038-.122-.503-.609-.785-1.066-.785h-.649c-.102 0-.122-.06-.122-.181v-.503c0-.1.02-.141.183-.141.223 0 .862.06 2.364.06 1.208 0 1.695-.06 1.919-.06.182 0 .203.04.203.16v.484c0 .1-.021.181-.102.181h-.568c-.345 0-.548.342-.609 1.056-.142 1.339-.467 5.866-.467 8.513v3.42c0 .303-.02.665-.305.665-.304 0-.568-.1-.781-.322-.345-.322-1.33-1.379-2.548-2.807l-3.45-4.065c-.346-.403-3.127-3.844-3.593-4.508h-.163v4.045c0 1.66.183 4.125.203 4.89.041 1.167.406 1.76 1.249 1.76h.507c.142 0 .162.06.162.182v.483c0 .12-.02.16-.162.16-.203 0-1.411-.06-2.365-.06-.629 0-2.02.06-2.223.06-.081 0-.101-.04-.101-.18v-.524c0-.06.02-.12.122-.12h.71c.447 0 .772-.644.863-1.983.02-.382.183-3.582.183-6.55v-1.8c0-1.188-.731-2.305-1.736-2.325l-.507-.02c-.102 0-.122-.08-.122-.141v-.543c0-.08.02-.121.122-.121.101 0 .263.02.649.02.406.02 1.046.04 2.101.04.69 0 1.289-.04 1.533-.04.264 0 .426.08.588.262l4.689 5.684 3.451 4.267h.082v-1.822.01Z"/>
    <path fill="#005DAC" fill-rule="evenodd" d="M76.152 26.502h-1.076a.155.155 0 0 1-.152-.15v-.977c0-.08.07-.15.152-.15h1.076c.081 0 .152.07.152.15v.977c0 .08-.07.15-.152.15Zm47.176 0h-1.076a.155.155 0 0 1-.152-.15v-.977c0-.08.071-.15.152-.15h1.076c.081 0 .152.07.152.15v.977c0 .08-.071.15-.152.15Z" clip-rule="evenodd"/>
    <path fill="#ED1C24" d="M.436 53.085h145.941v14.358H.436V53.085Z"/>
    <path fill="#FFF200" d="M146.348 67.423H154V75h-7.652v-7.577Z"/>
    <path fill="#fff" d="M19.325 63.731a3.7 3.7 0 0 1-1.35-.251 3.194 3.194 0 0 1-1.066-.695 3.378 3.378 0 0 1-.7-1.016 3.276 3.276 0 0 1-.254-1.258v-.02c0-.453.081-.865.254-1.258a3.14 3.14 0 0 1 .7-1.026 3.09 3.09 0 0 1 1.066-.694 3.7 3.7 0 0 1 1.35-.252 3.7 3.7 0 0 1 1.35.252c.406.171.76.402 1.065.694.295.292.528.634.7 1.017.163.392.254.815.254 1.257v.02c0 .453-.08.866-.253 1.258a3.139 3.139 0 0 1-.7 1.026c-.295.292-.65.534-1.066.695a3.502 3.502 0 0 1-1.35.251Zm.01-1.268c.274 0 .538-.05.771-.15a1.71 1.71 0 0 0 .6-.423c.162-.181.293-.383.385-.624a2.08 2.08 0 0 0 .142-.755v-.02c0-.271-.05-.523-.142-.754a1.822 1.822 0 0 0-.396-.624 1.994 1.994 0 0 0-.609-.423c-.233-.1-.487-.15-.771-.15a1.798 1.798 0 0 0-1.371.573 1.963 1.963 0 0 0-.385.624 2.08 2.08 0 0 0-.142.754v.02c0 .272.05.524.142.765.091.241.223.453.396.624.172.181.375.322.598.422.234.101.488.151.772.151l.01-.01Zm-.66-7.083h1.3l1.106 1.408h-1.056l-.71-.593-.71.593h-1.036l1.106-1.408Zm5.247 1.982h1.289l2.953 3.853v-3.853h1.38v6.258h-1.187l-3.065-3.974v3.984h-1.37v-6.268Zm11.317 1.268h-1.928v-1.268h5.237v1.268h-1.919v4.99h-1.39v-4.99Zm4.374-1.268h2.893c.802 0 1.41.21 1.847.633.355.353.538.836.538 1.43v.02c0 .502-.122.925-.375 1.237a2.187 2.187 0 0 1-.985.704l1.543 2.234H43.45l-1.35-2.002h-1.096v2.002h-1.39v-6.268.01Zm2.802 3.028c.345 0 .609-.08.791-.241a.811.811 0 0 0 .274-.644v-.02c0-.292-.091-.524-.294-.664-.193-.151-.457-.222-.802-.222h-1.38v1.791h1.41Zm6.8 3.34a3.7 3.7 0 0 1-1.35-.25 3.474 3.474 0 0 1-1.065-.695 3.204 3.204 0 0 1-.7-1.016 3.276 3.276 0 0 1-.254-1.258v-.02c0-.453.08-.865.253-1.258a3.193 3.193 0 0 1 1.766-1.72 3.5 3.5 0 0 1 1.35-.252 3.7 3.7 0 0 1 1.35.252c.406.17.762.402 1.066.694.304.292.528.634.7 1.016.163.393.254.815.254 1.258v.02c0 .453-.081.865-.254 1.258a3.136 3.136 0 0 1-.7 1.026 3.09 3.09 0 0 1-1.066.694 3.503 3.503 0 0 1-1.35.252Zm.02-1.267c.275 0 .539-.05.772-.15.233-.101.437-.242.599-.423.162-.181.294-.383.386-.624a2.08 2.08 0 0 0 .142-.755v-.02c0-.272-.051-.523-.142-.755a1.73 1.73 0 0 0-.396-.623 1.834 1.834 0 0 0-.61-.423 1.92 1.92 0 0 0-.77-.15 1.798 1.798 0 0 0-1.371.573 1.796 1.796 0 0 0-.386.623 2.078 2.078 0 0 0-.142.755v.02c0 .272.051.523.142.765.092.241.224.453.396.624.173.18.376.322.6.422.233.1.486.151.77.151l.01-.01Zm-.649 1.76h1.29v1.188h-1.29v-1.187Zm5.238-6.861h1.28l2.963 3.853v-3.853h1.37v6.258h-1.188l-3.055-3.984v3.984h-1.37v-6.258Zm10.169 6.368c-.498 0-.944-.08-1.35-.24a3.04 3.04 0 0 1-1.725-1.69 3.348 3.348 0 0 1-.244-1.289v-.02c0-.453.081-.865.254-1.258a3.11 3.11 0 0 1 .69-1.026c.294-.292.64-.533 1.045-.694a3.363 3.363 0 0 1 1.33-.252c.284 0 .538.02.771.06.234.04.447.091.64.172.192.07.385.16.558.271.172.111.345.232.507.373l-.873 1.046a4.263 4.263 0 0 0-.365-.272 1.885 1.885 0 0 0-.375-.19 5.012 5.012 0 0 0-.417-.132 2.517 2.517 0 0 0-.497-.05 1.714 1.714 0 0 0-1.289.574 1.915 1.915 0 0 0-.386.613 2.08 2.08 0 0 0-.142.755v.02c0 .292.051.553.142.795.092.242.224.453.396.634.173.181.376.312.599.412.233.101.487.151.771.151.518 0 .954-.13 1.31-.372v-.896h-1.401v-1.187h2.74v2.717c-.324.272-.71.513-1.157.704-.446.201-.954.292-1.532.292v-.02Zm8.994-.019a4.09 4.09 0 0 1-1.421-.252 3.749 3.749 0 0 1-1.27-.764l.823-.976c.294.231.589.412.893.553.305.141.64.212.995.212.294 0 .517-.05.67-.151a.479.479 0 0 0 .233-.433v-.02c0-.09-.02-.171-.05-.232a.492.492 0 0 0-.194-.19 2.323 2.323 0 0 0-.385-.182 7.567 7.567 0 0 0-.64-.191 7.339 7.339 0 0 1-.862-.262 2.71 2.71 0 0 1-.66-.352 1.407 1.407 0 0 1-.416-.523 1.79 1.79 0 0 1-.152-.775v-.02c0-.282.05-.543.162-.775.112-.231.254-.432.457-.593.193-.171.426-.292.7-.383.274-.09.568-.13.893-.13.467 0 .893.07 1.28.21.385.142.74.333 1.065.594l-.72 1.037a4.551 4.551 0 0 0-.833-.453 2.138 2.138 0 0 0-.812-.171c-.274 0-.477.05-.609.15a.476.476 0 0 0-.203.393v.02c0 .101.02.192.06.262.041.07.112.14.214.201.102.06.244.11.416.171.173.05.396.111.67.191.315.081.599.182.853.282.253.1.456.232.629.373.172.15.304.311.386.513.09.19.131.432.131.704v.02c0 .312-.06.584-.172.825a1.645 1.645 0 0 1-.477.604 2.083 2.083 0 0 1-.73.372c-.285.09-.6.13-.935.13l.01.011Zm9.823-7.466c.031.11.072.222.092.332.03.11.05.211.06.312l.031.262v.18c-.02.272-.121.514-.304.705-.173.191-.437.342-.771.433v2.425c0 .473-.061.895-.193 1.247a2.407 2.407 0 0 1-.559.886 2.482 2.482 0 0 1-.872.533c-.346.11-.721.171-1.147.171-.853 0-1.513-.231-2.01-.694-.487-.463-.73-1.157-.73-2.083v-3.582h1.39v3.542c0 .513.121.905.355 1.157.244.261.579.392 1.005.392.426 0 .761-.13 1.005-.372.243-.252.355-.624.355-1.127v-3.592h.984c.092-.02.163-.04.193-.07.03-.03.05-.08.05-.141 0-.07-.02-.171-.06-.312a3.554 3.554 0 0 0-.264-.584h1.37l.02-.02Zm-4.293 7.98h1.29v1.186h-1.29v-1.187Zm8.04-6.863h1.39v2.737l2.558-2.737h1.685l-2.578 2.656 2.69 3.602h-1.665l-1.96-2.666-.73.755v1.911h-1.39v-6.258Zm6.586 0h1.39v2.475h2.568v-2.475h1.39v6.258h-1.39v-2.515h-2.568v2.515h-1.39v-6.258Zm9.034-.05h1.279l2.71 6.308h-1.452l-.578-1.408h-2.67l-.578 1.408h-1.421l2.71-6.308Zm1.461 3.682-.842-2.032-.843 2.032h1.685Zm-.467-5.806 1.188.514-1.167 1.076h-1.015l1.005-1.58-.011-.01Zm6.526 8.542c-.467 0-.893-.08-1.289-.25a3.144 3.144 0 0 1-1.025-.685 3.067 3.067 0 0 1-.68-1.026 3.271 3.271 0 0 1-.244-1.268v-.02a3.221 3.221 0 0 1 .924-2.284 3.16 3.16 0 0 1 1.035-.695 3.363 3.363 0 0 1 1.329-.251c.295 0 .559.02.812.07.244.05.467.111.66.192.193.08.386.18.548.301.173.121.325.252.467.393l-.883 1.016a3.102 3.102 0 0 0-.751-.513 1.845 1.845 0 0 0-.863-.191c-.264 0-.507.05-.741.15a1.719 1.719 0 0 0-.578.423 1.777 1.777 0 0 0-.376.624 2.08 2.08 0 0 0-.132.755v.02c0 .272.051.523.132.764.082.242.213.453.376.624.162.171.355.322.578.423.224.1.477.15.741.15.356 0 .67-.07.914-.19a3.51 3.51 0 0 0 .741-.534l.883.886a4.323 4.323 0 0 1-.508.463 2.995 2.995 0 0 1-1.258.573c-.244.05-.518.07-.833.07l.021.01Zm6.405-6.368h2.933c.72 0 1.279.18 1.644.553.284.292.436.644.436 1.067v.02c0 .181-.02.332-.071.473-.04.14-.101.261-.182.372-.071.11-.163.211-.264.292-.102.08-.203.15-.315.211.366.141.65.322.863.553.213.232.315.564.315.977v.02c0 .291-.051.533-.163.754a1.498 1.498 0 0 1-.477.533 2.235 2.235 0 0 1-.751.323c-.294.07-.619.11-.964.11h-3.004v-6.258Zm2.638 2.535c.305 0 .549-.05.731-.15.183-.101.274-.272.274-.504v-.02c0-.211-.081-.372-.233-.473-.152-.11-.386-.17-.68-.17h-1.37v1.327h1.278v-.01Zm.366 2.516c.304 0 .548-.05.72-.171.173-.11.264-.282.264-.513v-.02a.578.578 0 0 0-.243-.494c-.163-.12-.427-.18-.782-.18h-1.603v1.378h1.654-.01Zm3.582-5.051h1.38v6.258h-1.38v-6.258Zm2.964 0h4.761v1.227h-3.39v1.268h2.984v1.227h-2.984v1.319h3.43v1.227h-4.801v-6.268Zm1.746-1.902h1.299l1.107 1.409h-1.056l-.711-.594-.71.594h-1.035l1.106-1.409Zm0 8.764h1.289v1.187h-1.289v-1.187Zm5.774-5.594h-1.918v-1.268h5.237v1.268h-1.928v4.99h-1.391v-4.99Zm-121.296 0H9.947v-1.268h5.238v1.268h-1.919v4.99h-1.39v-4.99Z"/>
  </g>
  <defs>
    <clipPath id="a">
      <path fill="#fff" d="M0 0h154v75H0z"/>
    </clipPath>
  </defs>
</svg>
